Music video by Havana Brown performing You'll Be Mine. (C) 2012 Universal Music Australia Pty Ltd.

                            1080p Full HD MP4 Video
                                     +
                             96 kbps/VBR M4A Audio

Cover: 
 
http://www.shotpix.com/images/52701287585638258520.jpg


Sing Along!
English subtitles included.

General
Format                         : MPEG-4
Format profile                 : Base Media / Version 2
Codec ID                       : mp42
File size                      : 43.0 MiB
Duration                       : 3mn 55s
Overall bit rate mode          : Variable
Overall bit rate               : 1 530 Kbps


Video
ID                             : 1
Format                         : AVC
Format/Info                    : Advanced Video Codec
Duration                       : 3mn 55s
Bit rate mode                  : Variable
Bit rate                       : 1 400 Kbps
Width                          : 1 920 pixels
Height                         : 1 080 pixels
Display aspect ratio           : 16:9
Frame rate mode                : Variable
Frame rate                     : 23.976 fps
Stream size                    : 39.5 MiB (92%)


Audio
ID                             : 2
Format                         : AAC
Format/Info                    : Advanced Audio Codec
Format profile                 : LC
Codec ID                       : 40
Duration                       : 3mn 55s
Bit rate mode                  : Variable
Bit rate                       : 119 Kbps
Maximum bit rate               : 195 Kbps
Channel(s)                     : 2 channels
Channel positions              : Front: L R
Sampling rate                  : 48.0 KHz
Stream size                    : 3.36 MiB (8%)

Subtitles                      : Yes (English)





Screens:

 
http://www.shotpix.com/images/55415838314407072119.jpg 
http://www.shotpix.com/images/09398108381548656610.jpg

Thumbs:
 
http://www.shotpix.com/images/12638257935906548035.jpg


------------------------------------------------------------------------

Notes:

* Best played on VLC Media Player.
* Install shark007 codecs in case of any kind of problem in playback (For non-VLC Media Player users).
* Alternatively, install Core AVC codecs, the fastest decoder that there is coupled with Community Center Codec Pack and play on Windows Media Player Classic.
* Read NFO
* Help in seeding this torrent as much as you can. 



Greets to: srkfan, VYTO, MgB, staff members at ExtraTorrent, TPB,KAT, 1337x, PublicHD, Ahashare,
SilverTorrent, TorrentMafia, P2PDL, and all others


Encoder Notes: Looking For Early Access To Anything You Can Provide DVDScr, R5, DVDRips, BluRay, Direct Audio, Early Music
Releases, Seedboxes, Links, Dedicated Servers anything u can provide, Advance / Promo CDs/DVDs. If You Got anything to
offer contact me at "contact@tinym.eu"

                                  Enjoy!